{
  "accessors": [
    {
      "bufferView": 2,
      "componentType": 5126,
      "count": 65532,
      "max": [
        7.744140625,
        30.435546875,
        7.779296875
      ],
      "min": [
        0.525390625,
        3.56640625,
        1.728515625
      ],
      "type": "VEC3"
    },
    {
      "bufferView": 2,
      "byteOffset": 786384,
      "componentType": 5126,
      "count": 65532,
      "max": [
        0.9999840259552002,
        0.9967036247253418,
        0.9999831318855286
      ],
      "min": [
        -1.0,
        -0.9999996423721313,
        -0.999993622303009
      ],
      "type": "VEC3"
    },
    {
      "bufferView": 1,
      "componentType": 5126,
      "count": 65532,
      "max": [
        0.9987789988517761,
        0.9987660050392151
      ],
      "min": [
        0.0012209999840706587,
        0.0012339999666437507
      ],
      "type": "VEC2"
    },
    {
      "bufferView": 0,
      "componentType": 5125,
      "count": 363246,
      "type": "SCALAR"
    },
    {
      "bufferView": 2,
      "byteOffset": 1572768,
      "componentType": 5126,
      "count": 65532,
      "max": [
        10.357421875,
        29.982421875,
        10.109375
      ],
      "min": [
        0.0,
        0.0,
        0.0
      ],
      "type": "VEC3"
    },
    {
      "bufferView": 2,
      "byteOffset": 2359152,
      "componentType": 5126,
      "count": 65532,
      "max": [
        0.9999840259552002,
        0.9998166561126709,
        0.9999988675117493
      ],
      "min": [
        -1.0,
        -0.9999967813491821,
        -0.9999813437461853
      ],
      "type": "VEC3"
    },
    {
      "bufferView": 1,
      "byteOffset": 524256,
      "componentType": 5126,
      "count": 65532,
      "max": [
        0.9846190214157104,
        0.9938290119171143
      ],
      "min": [
        0.0012209999840706587,
        0.0012339999666437507
      ],
      "type": "VEC2"
    },
    {
      "bufferView": 0,
      "byteOffset": 1452984,
      "componentType": 5125,
      "count": 349812,
      "type": "SCALAR"
    },
    {
      "bufferView": 2,
      "byteOffset": 3145536,
      "componentType": 5126,
      "count": 65532,
      "max": [
        9.87109375,
        30.591796875,
        11.259765625
      ],
      "min": [
        0.138671875,
        6.376953125,
        2.015625
      ],
      "type": "VEC3"
    },
    {
      "bufferView": 2,
      "byteOffset": 3931920,
      "componentType": 5126,
      "count": 65532,
      "max": [
        0.9999942183494568,
        0.9986470937728882,
        0.99997478723526
      ],
      "min": [
        -1.0,
        -0.9999983310699463,
        -0.9999962449073792
      ],
      "type": "VEC3"
    },
    {
      "bufferView": 1,
      "byteOffset": 1048512,
      "componentType": 5126,
      "count": 65532,
      "max": [
        0.9987789988517761,
        0.9576650261878967
      ],
      "min": [
        0.0014649999793618917,
        0.0012339999666437507
      ],
      "type": "VEC2"
    },
    {
      "bufferView": 0,
      "byteOffset": 2852232,
      "componentType": 5125,
      "count": 347139,
      "type": "SCALAR"
    },
    {
      "bufferView": 2,
      "byteOffset": 4718304,
      "componentType": 5126,
      "count": 34089,
      "max": [
        7.21875,
        23.08203125,
        7.689453125
      ],
      "min": [
        0.09765625,
        0.0859375,
        2.015625
      ],
      "type": "VEC3"
    },
    {
      "bufferView": 2,
      "byteOffset": 5127372,
      "componentType": 5126,
      "count": 34089,
      "max": [
        0.9998871088027954,
        0.9995032548904419,
        0.9999717473983765
      ],
      "min": [
        -1.0,
        -0.9985007643699646,
        -0.9999443292617798
      ],
      "type": "VEC3"
    },
    {
      "bufferView": 1,
      "byteOffset": 1572768,
      "componentType": 5126,
      "count": 34089,
      "max": [
        0.9986569881439209,
        0.9932119846343994
      ],
      "min": [
        0.0012209999840706587,
        0.0012339999666437507
      ],
      "type": "VEC2"
    },
    {
      "bufferView": 0,
      "byteOffset": 4240788,
      "componentType": 5125,
      "count": 183090,
      "type": "SCALAR"
    }
  ],
  "asset": {
    "extras": {
      "author": "Geoffrey Marchal (https://sketchfab.com/geoffreymarchal)",
      "license": "CC-BY-4.0 (http://creativecommons.org/licenses/by/4.0/)",
      "source": "https://sketchfab.com/3d-models/hebe-2d82aa4980304f9fb419434d10d94b05",
      "title": "Hebe"
    },
    "generator": "Sketchfab-13.93.0",
    "version": "2.0"
  },
  "bufferViews": [
    {
      "buffer": 0,
      "byteLength": 4973148,
      "name": "floatBufferViews",
      "target": 34963
    },
    {
      "buffer": 0,
      "byteLength": 1845480,
      "byteOffset": 4973148,
      "byteStride": 8,
      "name": "floatBufferViews",
      "target": 34962
    },
    {
      "buffer": 0,
      "byteLength": 5536440,
      "byteOffset": 6818628,
      "byteStride": 12,
      "name": "floatBufferViews",
      "target": 34962
    }
  ],
  "buffers": [
    {
      "byteLength": 12355068,
      "uri": "scene.bin"
    }
  ],
  "extensionsRequired": [
    "KHR_materials_pbrSpecularGlossiness"
  ],
  "extensionsUsed": [
    "KHR_materials_pbrSpecularGlossiness"
  ],
  "images": [
    {
      "uri": "textures/Material_0_diffuse.jpeg"
    },
    {
      "uri": "textures/Material_0_specularGlossiness.png"
    }
  ],
  "materials": [
    {
      "doubleSided": true,
      "extensions": {
        "KHR_materials_pbrSpecularGlossiness": {
          "diffuseFactor": [
            1.0,
            1.0,
            1.0,
            1.0
          ],
          "diffuseTexture": {
            "index": 0
          },
          "glossinessFactor": 0.5084468287399964,
          "specularFactor": [
            1.0,
            1.0,
            1.0
          ],
          "specularGlossinessTexture": {
            "index": 1
          }
        }
      },
      "name": "Material_0"
    }
  ],
  "meshes": [
    {
      "name": "Object_0",
      "primitives": [
        {
          "attributes": {
            "NORMAL": 1,
            "POSITION": 0,
            "TEXCOORD_0": 2
          },
          "indices": 3,
          "material": 0,
          "mode": 4
        }
      ]
    },
    {
      "name": "Object_1",
      "primitives": [
        {
          "attributes": {
            "NORMAL": 5,
            "POSITION": 4,
            "TEXCOORD_0": 6
          },
          "indices": 7,
          "material": 0,
          "mode": 4
        }
      ]
    },
    {
      "name": "Object_2",
      "primitives": [
        {
          "attributes": {
            "NORMAL": 9,
            "POSITION": 8,
            "TEXCOORD_0": 10
          },
          "indices": 11,
          "material": 0,
          "mode": 4
        }
      ]
    },
    {
      "name": "Object_3",
      "primitives": [
        {
          "attributes": {
            "NORMAL": 13,
            "POSITION": 12,
            "TEXCOORD_0": 14
          },
          "indices": 15,
          "material": 0,
          "mode": 4
        }
      ]
    }
  ],
  "nodes": [
    {
      "children": [
        1
      ],
      "matrix": [
        0.9809055924415588,
        -4.318421788413944e-17,
        0.1944844275712967,
        0.0,
        5.551115123125783e-17,
        -1.0,
        -5.776629175002768e-16,
        0.0,
        0.1944844275712967,
        5.768925542696388e-16,
        -0.9809055924415588,
        0.0,
        0.0,
        0.0,
        0.0,
        1.0
      ],
      "name": "Sketchfab_model"
    },
    {
      "children": [
        2,
        3,
        4,
        5
      ],
      "matrix": [
        1.0,
        0.0,
        0.0,
        0.0,
        0.0,
        1.0,
        0.0,
        0.0,
        0.0,
        0.0,
        1.0,
        0.0,
        -25303.494140625,
        27352.1171875,
        -25524.62890625,
        1.0
      ],
      "name": "a37.obj.cleaner.gles"
    },
    {
      "mesh": 0,
      "name": "Object_2"
    },
    {
      "mesh": 1,
      "name": "Object_3"
    },
    {
      "mesh": 2,
      "name": "Object_4"
    },
    {
      "mesh": 3,
      "name": "Object_5"
    }
  ],
  "samplers": [
    {
      "magFilter": 9729,
      "minFilter": 9987,
      "wrapS": 10497,
      "wrapT": 10497
    }
  ],
  "scene": 0,
  "scenes": [
    {
      "name": "Sketchfab_Scene",
      "nodes": [
        0
      ]
    }
  ],
  "textures": [
    {
      "sampler": 0,
      "source": 0
    },
    {
      "sampler": 0,
      "source": 1
    }
  ]
}
